# xmcd
#
# Track frame offsets:
#	150
#	14828
#	30391
#	48830
#	65658
#	83719
#	100557
#	116525
#	132838
#	147230
#	157717
#	172825
#	187096
#	207356
#	228131
#
# Disc length: 3224 seconds
#
# Revision: 4
# Processed by: cddbd v1.5.1PL0 Copyright (c) Steve Scherf et al.
# Submitted via: audiograbber 1.83.01
#
DISCID=ba0c960f
DTITLE=1997-04 Country Radio - 1997-04 Country Radio
DYEAR=1997
DGENRE=Country
TTITLE0=Pam Tillis - All The Good Ones Are Gone
TTITLE1=Randy Travis - King Of The Road
TTITLE2=Jo Dee Messina - He'd Never Seen Julie Cry
TTITLE3=Skip Ewing - Mary Go Round
TTITLE4=Alan Jackson - Who's Cheatin' Who
TTITLE5=Lee Roy Parnell - Lucky Me, Lucky You
TTITLE6=Alison Krauss and Union Station - Find My Way Back To My Heart
TTITLE7=Gene Watson - No Goodbyes
TTITLE8=Holly Dunn - Leave One Bridge Standing
TTITLE9=Nanci Griffith - Maybe Tomorrow
TTITLE10=Don Cox - Sweet Sweet Woman
TTITLE11=Jim Auston - The Buckle
TTITLE12=Orville Davis - Wanted: Total Stranger
TTITLE13=John Keaton - Heart Of The Little Town
TTITLE14=Big Kat Kaylor - I'm Scattered
EXTD=
EXTT0=
EXTT1=
EXTT2=
EXTT3=
EXTT4=
EXTT5=
EXTT6=
EXTT7=
EXTT8=
EXTT9=
EXTT10=
EXTT11=
EXTT12=
EXTT13=
EXTT14=
PLAYORDER=
